<svg data-v-423bf9ae="" xmlns="http://www.w3.org/2000/svg" viewBox="0 0 210.3614101425811 60" class="font"><!----><!----><defs data-v-423bf9ae=""><linearGradient data-v-423bf9ae="" gradientTransform="rotate(25)" id="0eadb5e1-4efd-4173-9bd0-41680c808e56" x1="0%" y1="0%" x2="100%" y2="0%"><stop data-v-423bf9ae="" offset="0%" style="stop-color: rgb(206, 175, 235); stop-opacity: 1;"></stop><stop data-v-423bf9ae="" offset="100%" style="stop-color: rgb(239, 223, 180); stop-opacity: 1;"></stop></linearGradient></defs><g data-v-423bf9ae="" id="3b1313bb-26ab-4224-bac5-65722b3af32c" fill="url(#0eadb5e1-4efd-4173-9bd0-41680c808e56)" transform="matrix(6.571740742675093,0,0,6.571740742675093,3.877330236971119,-45.27929236277218)"><path d="M1.82 14.24L1.82 14.24L1.82 14.24Q1.89 14.66 1.98 14.81L1.98 14.81L1.98 14.81Q2.07 14.97 2.27 15.06L2.27 15.06L2.27 15.06Q2.49 15.20 2.81 15.29L2.81 15.29L2.81 15.29Q2.86 15.30 2.90 15.31L2.90 15.31L2.90 15.31Q2.94 15.32 3.01 15.32L3.01 15.32L3.01 15.32Q3.19 15.32 3.25 15.21L3.25 15.21L3.25 15.21Q3.30 15.11 3.37 14.87L3.37 14.87L3.37 14.87Q3.46 14.60 3.57 14.24L3.57 14.24L3.57 14.24Q3.68 13.87 3.82 13.47L3.82 13.47L3.82 13.47Q3.96 13.06 4.12 12.62L4.12 12.62L4.12 12.62Q4.27 12.18 4.42 11.75L4.42 11.75L4.42 11.75Q4.30 12.64 4.21 13.46L4.21 13.46L4.21 13.46Q4.13 14.28 4.10 14.74L4.10 14.74L4.10 14.73L4.10 14.73Q4.09 14.80 4.09 14.94L4.09 14.94L4.09 14.94Q4.09 15.37 4.42 15.61L4.42 15.61L4.42 15.61Q4.56 15.72 4.79 15.81L4.79 15.81L4.79 15.81Q5.01 15.90 5.24 15.99L5.24 15.99L5.31 15.99L5.31 15.99Q5.49 15.99 5.57 15.87L5.57 15.87L5.57 15.87Q5.64 15.75 5.68 15.53L5.68 15.53L5.68 15.53Q5.75 14.94 5.89 14L5.89 14L5.89 14Q6.02 13.06 6.17 12.03L6.17 12.03L6.17 12.03Q6.33 11.00 6.48 10.03L6.48 10.03L6.48 10.03Q6.64 9.06 6.75 8.40L6.75 8.40L6.75 8.41L6.75 8.41Q6.78 8.34 6.78 8.27L6.78 8.27L6.78 8.27Q6.78 8.19 6.78 8.11L6.78 8.11L6.78 8.11Q6.78 7.90 6.69 7.76L6.69 7.76L6.69 7.76Q6.61 7.63 6.43 7.52L6.43 7.52L6.43 7.52Q6.10 7.32 5.80 7.20L5.80 7.20L5.80 7.20Q5.49 7.07 5.22 6.97L5.22 6.97L5.22 6.97Q4.98 6.89 4.86 6.89L4.86 6.89L4.86 6.89Q4.54 6.89 4.36 7.20L4.36 7.20L4.36 7.20Q4.19 7.50 3.95 8.19L3.95 8.19L3.95 8.18L3.95 8.18Q3.71 8.76 3.45 9.46L3.45 9.46L3.45 9.46Q3.19 10.15 2.97 10.79L2.97 10.79L2.97 10.79Q2.88 10.05 2.84 9.62L2.84 9.62L2.84 9.62Q2.80 9.18 2.78 8.95L2.78 8.95L2.78 8.95Q2.76 8.71 2.75 8.61L2.75 8.61L2.75 8.61Q2.74 8.51 2.74 8.43L2.74 8.43L2.74 8.43Q2.70 8.06 2.60 7.83L2.60 7.83L2.60 7.83Q2.51 7.60 2.16 7.41L2.16 7.41L2.16 7.41Q1.89 7.27 1.65 7.18L1.65 7.18L1.65 7.18Q1.40 7.08 1.05 7.01L1.05 7.01L1.05 7.01Q1.01 7 0.95 7L0.95 7L0.95 7Q0.91 7 0.87 7L0.87 7L0.87 7Q0.64 7 0.54 7.11L0.54 7.11L0.54 7.11Q0.43 7.22 0.36 7.53L0.36 7.53L0.36 7.53Q0.28 7.95 0.19 8.53L0.19 8.53L0.19 8.53Q0.10 9.11 0 9.77L0 9.77L0 9.77Q-0.10 10.43-0.20 11.14L-0.20 11.14L-0.20 11.14Q-0.29 11.84-0.37 12.51L-0.37 12.51L-0.37 12.51Q-0.45 13.17-0.51 13.76L-0.51 13.76L-0.51 13.76Q-0.57 14.35-0.59 14.77L-0.59 14.77L-0.59 14.94L-0.59 14.94Q-0.59 15.20-0.52 15.34L-0.52 15.34L-0.52 15.34Q-0.45 15.48-0.27 15.61L-0.27 15.61L-0.27 15.61Q0.07 15.86 0.43 15.97L0.43 15.97L0.43 15.97Q0.48 15.99 0.52 16.00L0.52 16.00L0.52 16.00Q0.56 16.00 0.63 16.00L0.63 16.00L0.63 16.00Q0.80 16.00 0.87 15.90L0.87 15.90L0.87 15.90Q0.94 15.79 0.97 15.58L0.97 15.58L0.97 15.58Q1.04 14.83 1.18 13.79L1.18 13.79L1.18 13.79Q1.32 12.75 1.48 11.66L1.48 11.66L1.48 11.66Q1.55 12.38 1.64 13.03L1.64 13.03L1.64 13.03Q1.72 13.69 1.82 14.24ZM6.78 14.53L6.78 14.53L6.78 14.53Q6.89 14.90 7.06 15.12L7.06 15.12L7.06 15.12Q7.22 15.34 7.41 15.50L7.41 15.50L7.41 15.50Q7.87 15.90 8.60 15.96L8.60 15.96L8.60 15.96Q8.65 15.96 8.71 15.97L8.71 15.97L8.71 15.97Q8.76 15.97 8.82 15.97L8.82 15.97L8.82 15.97Q9.10 15.97 9.34 15.89L9.34 15.89L9.34 15.89Q9.58 15.81 9.81 15.62L9.81 15.62L9.81 15.62Q10.19 15.29 10.47 14.62L10.47 14.62L10.47 14.62Q10.75 13.94 10.98 13.00L10.98 13.00L10.98 13.00Q11.20 12.05 11.38 10.86L11.38 10.86L11.38 10.86Q11.55 9.67 11.70 8.30L11.70 8.30L11.70 8.32L11.70 8.32Q11.72 8.25 11.72 8.19L11.72 8.19L11.72 8.19Q11.72 8.13 11.72 8.08L11.72 8.08L11.72 8.08Q11.72 7.92 11.66 7.81L11.66 7.81L11.66 7.81Q11.59 7.70 11.42 7.55L11.42 7.55L11.42 7.55Q11.17 7.35 10.88 7.17L10.88 7.17L10.88 7.17Q10.58 6.99 10.35 6.99L10.35 6.99L10.35 6.99Q9.95 6.99 9.94 7.45L9.94 7.45L9.94 7.45Q9.87 7.98 9.79 8.69L9.79 8.69L9.79 8.69Q9.70 9.41 9.59 10.16L9.59 10.16L9.59 10.16Q9.48 10.92 9.35 11.66L9.35 11.66L9.35 11.66Q9.21 12.40 9.07 12.98L9.07 12.98L9.07 12.98Q8.93 13.57 8.78 13.92L8.78 13.92L8.78 13.92Q8.62 14.28 8.46 14.28L8.46 14.28L8.44 14.28L8.44 14.28Q8.34 14.24 8.31 14.03L8.31 14.03L8.31 14.03Q8.27 13.82 8.27 13.50L8.27 13.50L8.27 13.50Q8.27 13.03 8.35 12.43L8.35 12.43L8.35 12.43Q8.43 11.82 8.55 11.16L8.55 11.16L8.55 11.16Q8.67 10.50 8.80 9.86L8.80 9.86L8.80 9.86Q8.93 9.21 9.06 8.69L9.06 8.69L9.04 8.71L9.04 8.71Q9.07 8.61 9.08 8.55L9.08 8.55L9.08 8.55Q9.09 8.48 9.09 8.41L9.09 8.41L9.09 8.41Q9.09 7.98 8.78 7.67L8.78 7.67L8.78 7.67Q8.60 7.50 8.41 7.37L8.41 7.37L8.41 7.37Q8.22 7.24 8.02 7.17L8.02 7.17L8.02 7.17Q7.88 7.10 7.76 7.10L7.76 7.10L7.76 7.10Q7.60 7.10 7.50 7.19L7.50 7.19L7.50 7.19Q7.41 7.28 7.35 7.52L7.35 7.52L7.35 7.52Q7.21 8.13 7.06 8.82L7.06 8.82L7.06 8.82Q6.92 9.51 6.80 10.21L6.80 10.21L6.80 10.21Q6.69 10.91 6.62 11.59L6.62 11.59L6.62 11.59Q6.54 12.28 6.54 12.89L6.54 12.89L6.54 12.89Q6.54 13.38 6.59 13.80L6.59 13.80L6.59 13.80Q6.65 14.21 6.78 14.53ZM14.46 8.43L14.46 8.43L14.46 8.43Q14.42 8.05 14.31 7.85L14.31 7.85L14.31 7.85Q14.21 7.64 13.97 7.52L13.97 7.52L13.97 7.53L13.97 7.53Q13.76 7.38 13.55 7.29L13.55 7.29L13.55 7.29Q13.34 7.21 13.13 7.13L13.13 7.13L13.13 7.13Q13.10 7.11 13.07 7.10L13.07 7.10L13.07 7.10Q13.03 7.08 13.01 7.07L13.01 7.07L13.02 7.07L13.02 7.07Q12.91 7.01 12.78 7.01L12.78 7.01L12.78 7.01Q12.46 7.01 12.33 7.49L12.33 7.49L12.33 7.49Q12.24 7.95 12.14 8.58L12.14 8.58L12.14 8.58Q12.04 9.21 11.94 9.91L11.94 9.91L11.94 9.91Q11.84 10.61 11.75 11.33L11.75 11.33L11.75 11.33Q11.66 12.04 11.58 12.68L11.58 12.68L11.58 12.68Q11.51 13.31 11.45 13.83L11.45 13.83L11.45 13.83Q11.40 14.35 11.38 14.64L11.38 14.64L11.38 14.63L11.38 14.63Q11.37 14.70 11.37 14.76L11.37 14.76L11.37 14.76Q11.37 14.81 11.37 14.87L11.37 14.87L11.37 14.87Q11.37 15.11 11.44 15.24L11.44 15.24L11.44 15.24Q11.51 15.37 11.66 15.50L11.66 15.50L11.66 15.50Q11.80 15.64 11.98 15.72L11.98 15.72L11.98 15.72Q12.15 15.81 12.35 15.88L12.35 15.88L12.35 15.88Q12.39 15.89 12.38 15.88L12.38 15.88L12.38 15.88Q12.38 15.88 12.40 15.89L12.40 15.89L12.40 15.89Q12.56 15.95 12.64 15.95L12.64 15.95L12.64 15.95Q12.81 15.95 12.87 15.86L12.87 15.86L12.87 15.86Q12.92 15.78 12.95 15.58L12.95 15.58L12.95 15.58Q13.01 15.12 13.09 14.50L13.09 14.50L13.09 14.50Q13.17 13.89 13.27 13.19L13.27 13.19L13.27 13.19Q13.31 12.88 13.36 12.56L13.36 12.56L13.36 12.56Q13.40 12.24 13.45 11.91L13.45 11.91L13.45 11.91Q13.61 12.75 13.78 13.52L13.78 13.52L13.78 13.52Q13.96 14.28 14.11 14.81L14.11 14.81L14.11 14.80L14.11 14.80Q14.18 15.08 14.32 15.27L14.32 15.27L14.32 15.27Q14.46 15.47 14.64 15.57L14.64 15.57L14.64 15.57Q14.84 15.67 15.02 15.74L15.02 15.74L15.02 15.74Q15.19 15.82 15.37 15.88L15.37 15.88L15.36 15.86L15.36 15.86Q15.43 15.89 15.48 15.90L15.48 15.90L15.48 15.90Q15.53 15.90 15.58 15.90L15.58 15.90L15.58 15.90Q15.96 15.90 15.99 15.46L15.99 15.46L15.99 15.46Q16.02 15.30 16.03 15.14L16.03 15.14L16.03 15.14Q16.04 14.98 16.07 14.81L16.07 14.81L16.07 14.81Q16.17 14.04 16.30 13.17L16.30 13.17L16.30 13.17Q16.42 12.29 16.55 11.42L16.55 11.42L16.55 11.42Q16.67 10.54 16.79 9.74L16.79 9.74L16.79 9.74Q16.91 8.95 17.02 8.33L17.02 8.33L17.02 8.33Q17.04 8.26 17.05 8.19L17.05 8.19L17.05 8.19Q17.05 8.12 17.05 8.05L17.05 8.05L17.05 8.05Q17.05 7.88 16.99 7.76L16.99 7.76L16.99 7.76Q16.93 7.63 16.76 7.48L16.76 7.48L16.76 7.48Q16.63 7.36 16.53 7.29L16.53 7.29L16.53 7.29Q16.44 7.22 16.36 7.18L16.36 7.18L16.36 7.18Q16.28 7.14 16.20 7.11L16.20 7.11L16.20 7.11Q16.11 7.08 16.00 7.06L16.00 7.06L16.02 7.07L16.02 7.07Q15.90 7.01 15.78 7.01L15.78 7.01L15.78 7.01Q15.46 7.01 15.37 7.46L15.37 7.46L15.37 7.46Q15.23 8.22 15.08 9.13L15.08 9.13L15.08 9.13Q14.94 10.04 14.81 11.05L14.81 11.05L14.81 11.05Q14.70 10.25 14.60 9.53L14.60 9.53L14.60 9.53Q14.50 8.82 14.46 8.43ZM17.65 7.56L17.56 7.67L16.70 14.14L16.70 14.29L16.70 14.29Q16.70 14.57 16.77 14.77L16.77 14.77L16.77 14.77Q16.84 14.97 16.95 15.12L16.95 15.12L16.95 15.12Q17.11 15.32 17.21 15.44L17.21 15.44L17.21 15.44Q17.32 15.57 17.46 15.71L17.46 15.71L17.46 15.71Q17.54 15.81 17.67 15.88L17.67 15.88L17.67 15.88Q17.79 15.95 17.96 15.95L17.96 15.95L17.96 15.95Q18.03 15.95 18.13 15.93L18.13 15.93L18.13 15.93Q18.23 15.92 18.34 15.86L18.34 15.86L18.33 15.88L18.33 15.88Q18.77 15.75 19.26 15.61L19.26 15.61L19.26 15.61Q19.75 15.47 20.23 15.33L20.23 15.33L20.23 15.33Q20.43 15.26 20.50 15.19L20.50 15.19L20.50 15.19Q20.58 15.12 20.58 14.94L20.58 14.94L20.58 14.94Q20.58 14.87 20.57 14.83L20.57 14.83L20.57 14.83Q20.57 14.80 20.55 14.73L20.55 14.73L20.55 14.73Q20.52 14.67 20.51 14.60L20.51 14.60L20.51 14.60Q20.50 14.52 20.47 14.46L20.47 14.46L20.48 14.48L20.48 14.48Q20.45 14.36 20.41 14.24L20.41 14.24L20.41 14.24Q20.37 14.11 20.27 13.89L20.27 13.89L20.27 13.89Q20.13 13.50 19.77 13.50L19.77 13.50L19.77 13.50Q19.74 13.50 19.70 13.50L19.70 13.50L19.70 13.50Q19.66 13.51 19.63 13.51L19.63 13.51L19.63 13.51Q19.31 13.54 19.04 13.57L19.04 13.57L19.04 13.57Q18.77 13.61 18.49 13.68L18.49 13.68L18.51 13.65L18.51 13.65Q18.54 13.44 18.58 13.22L18.58 13.22L18.58 13.22Q18.62 13.01 18.66 12.77L18.66 12.77L18.66 12.77Q19.00 12.66 19.35 12.57L19.35 12.57L19.35 12.57Q19.70 12.49 20.06 12.39L20.06 12.39L20.06 12.39Q20.13 12.38 20.20 12.36L20.20 12.36L20.20 12.36Q20.26 12.35 20.33 12.33L20.33 12.33L20.33 12.33Q20.51 12.28 20.59 12.21L20.59 12.21L20.59 12.21Q20.68 12.14 20.68 11.96L20.68 11.96L20.68 11.96Q20.68 11.86 20.62 11.70L20.62 11.70L20.64 11.72L20.64 11.72Q20.59 11.51 20.55 11.32L20.55 11.32L20.55 11.32Q20.50 11.13 20.38 10.91L20.38 10.91L20.38 10.92L20.38 10.92Q20.30 10.68 20.17 10.60L20.17 10.60L20.17 10.60Q20.05 10.51 19.84 10.51L19.84 10.51L19.77 10.51L19.77 10.51Q19.57 10.53 19.40 10.53L19.40 10.53L19.40 10.53Q19.25 10.53 19.10 10.56L19.10 10.56L19.10 10.56Q19.17 10.28 19.22 10.00L19.22 10.00L19.22 10.00Q19.28 9.73 19.33 9.46L19.33 9.46L19.33 9.46Q19.36 9.35 19.38 9.25L19.38 9.25L19.38 9.25Q19.39 9.14 19.42 9.03L19.42 9.03L19.42 9.03Q19.73 8.96 20.00 8.92L20.00 8.92L20.00 8.92Q20.27 8.88 20.55 8.83L20.55 8.83L20.55 8.83Q20.68 8.81 20.81 8.80L20.81 8.80L20.81 8.80Q20.94 8.79 21.06 8.76L21.06 8.76L21.06 8.76Q21.27 8.74 21.35 8.64L21.35 8.64L21.35 8.64Q21.43 8.55 21.43 8.36L21.43 8.36L21.43 8.23L21.43 8.23Q21.42 8.20 21.41 8.13L21.41 8.13L21.41 8.13Q21.39 8.05 21.38 8.02L21.38 8.02L21.39 8.04L21.39 8.04Q21.36 7.88 21.32 7.73L21.32 7.73L21.32 7.73Q21.28 7.59 21.20 7.38L21.20 7.38L21.20 7.39L21.20 7.39Q21.06 6.92 20.62 6.92L20.62 6.92L20.57 6.92L20.57 6.92Q19.80 6.96 19.02 7.16L19.02 7.16L19.02 7.16Q18.24 7.36 17.65 7.56L17.65 7.56ZM26.05 8.68L26.07 8.68L26.07 8.68Q26.26 8.65 26.35 8.58L26.35 8.58L26.35 8.58Q26.43 8.51 26.43 8.36L26.43 8.36L26.43 8.36Q26.43 8.25 26.43 8.20L26.43 8.20L26.43 8.20Q26.42 8.16 26.40 8.09L26.40 8.09L26.40 8.09Q26.35 7.88 26.26 7.65L26.26 7.65L26.26 7.65Q26.17 7.42 26.00 7.18L26.00 7.18L26.00 7.20L26.00 7.20Q25.90 7.04 25.78 6.97L25.78 6.97L25.78 6.97Q25.66 6.90 25.42 6.90L25.42 6.90L25.42 6.90Q25.03 6.93 24.54 6.97L24.54 6.97L24.54 6.97Q24.05 7.01 23.55 7.08L23.55 7.08L23.55 7.08Q23.04 7.15 22.57 7.24L22.57 7.24L22.57 7.24Q22.09 7.32 21.71 7.42L21.71 7.42L21.71 7.42Q21.56 7.49 21.48 7.55L21.48 7.55L21.48 7.55Q21.39 7.60 21.39 7.76L21.39 7.76L21.39 7.76Q21.39 7.84 21.45 7.99L21.45 7.99L21.43 7.99L21.43 7.99Q21.50 8.19 21.61 8.48L21.61 8.48L21.61 8.48Q21.71 8.78 21.87 9.00L21.87 9.00L21.85 8.99L21.85 8.99Q21.97 9.17 22.06 9.24L22.06 9.24L22.06 9.24Q22.15 9.31 22.30 9.31L22.30 9.31L22.30 9.31Q22.43 9.31 22.54 9.25L22.54 9.25L22.54 9.25Q22.60 9.23 22.70 9.21L22.70 9.21L22.70 9.21Q22.81 9.20 22.95 9.17L22.95 9.17L22.99 9.17L22.99 9.17Q22.88 9.80 22.77 10.56L22.77 10.56L22.77 10.56Q22.67 11.31 22.57 12.07L22.57 12.07L22.57 12.07Q22.47 12.82 22.39 13.51L22.39 13.51L22.39 13.51Q22.32 14.20 22.29 14.70L22.29 14.70L22.29 14.69L22.29 14.69Q22.27 14.74 22.27 14.80L22.27 14.80L22.27 14.80Q22.27 14.85 22.27 14.91L22.27 14.91L22.27 14.91Q22.27 15.29 22.48 15.48L22.48 15.48L22.48 15.48Q22.68 15.67 22.99 15.81L22.99 15.81L22.99 15.81Q23.02 15.82 23.04 15.83L23.04 15.83L23.04 15.83Q23.06 15.83 23.09 15.85L23.09 15.85L23.09 15.85Q23.23 15.92 23.34 15.97L23.34 15.97L23.34 15.97Q23.45 16.02 23.56 16.02L23.56 16.02L23.56 16.02Q23.72 16.02 23.80 15.93L23.80 15.93L23.80 15.93Q23.88 15.85 23.91 15.62L23.91 15.62L23.91 15.62Q24.01 14.87 24.13 14.04L24.13 14.04L24.13 14.04Q24.25 13.22 24.38 12.37L24.38 12.37L24.38 12.37Q24.51 11.52 24.65 10.68L24.65 10.68L24.65 10.68Q24.79 9.84 24.92 9.07L24.92 9.07L24.92 9.07Q24.92 9.02 24.93 8.95L24.93 8.95L24.93 8.95Q24.95 8.89 24.96 8.82L24.96 8.82L24.96 8.82Q25.07 8.81 25.20 8.80L25.20 8.80L25.20 8.80Q25.33 8.79 25.44 8.76L25.44 8.76L25.44 8.76Q25.59 8.74 25.75 8.72L25.75 8.72L25.75 8.72Q25.90 8.71 26.05 8.68L26.05 8.68ZM31.39 8.23L31.39 8.23L31.39 8.23Q31.40 8.16 31.41 8.11L31.41 8.11L31.41 8.11Q31.42 8.05 31.42 7.98L31.42 7.98L31.42 7.98Q31.42 7.83 31.35 7.71L31.35 7.71L31.35 7.71Q31.28 7.60 31.12 7.46L31.12 7.46L31.12 7.46Q30.91 7.28 30.70 7.15L30.70 7.15L30.70 7.15Q30.48 7.01 30.28 6.94L30.28 6.94L30.28 6.96L30.28 6.96Q30.20 6.93 30.13 6.91L30.13 6.91L30.13 6.91Q30.06 6.89 30.02 6.89L30.02 6.89L30.02 6.89Q29.86 6.89 29.77 6.99L29.77 6.99L29.77 6.99Q29.68 7.08 29.64 7.34L29.64 7.34L29.64 7.34Q29.53 7.91 29.41 8.63L29.41 8.63L29.41 8.63Q29.30 9.35 29.19 10.14L29.19 10.14L29.19 10.14Q29.16 10.33 29.13 10.53L29.13 10.53L29.13 10.53Q29.09 10.72 29.06 10.92L29.06 10.92L29.06 10.92Q28.87 10.93 28.66 10.96L28.66 10.96L28.66 10.96Q28.45 10.99 28.24 11.02L28.24 11.02L28.24 11.02Q28.27 10.86 28.29 10.73L28.29 10.73L28.29 10.73Q28.32 10.60 28.35 10.44L28.35 10.44L28.35 10.44Q28.46 9.83 28.55 9.31L28.55 9.31L28.55 9.31Q28.63 8.79 28.71 8.40L28.71 8.40L28.71 8.40Q28.73 8.33 28.73 8.27L28.73 8.27L28.73 8.27Q28.74 8.22 28.74 8.13L28.74 8.13L28.74 8.13Q28.74 7.98 28.67 7.87L28.67 7.87L28.67 7.87Q28.60 7.76 28.43 7.60L28.43 7.60L28.45 7.62L28.45 7.62Q28.25 7.45 28.01 7.31L28.01 7.31L28.01 7.31Q27.78 7.17 27.55 7.08L27.55 7.08L27.55 7.08Q27.41 7.01 27.29 7.01L27.29 7.01L27.29 7.01Q27.15 7.01 27.05 7.11L27.05 7.11L27.05 7.11Q26.96 7.21 26.91 7.45L26.91 7.45L26.91 7.45Q26.84 7.94 26.77 8.54L26.77 8.54L26.77 8.54Q26.70 9.14 26.63 9.77L26.63 9.77L26.63 9.77Q26.56 10.42 26.48 11.07L26.48 11.07L26.48 11.07Q26.40 11.73 26.32 12.38L26.32 12.38L26.32 12.38Q26.24 13.02 26.14 13.61L26.14 13.61L26.14 13.61Q26.05 14.20 25.97 14.69L25.97 14.69L25.97 14.69Q25.96 14.76 25.95 14.81L25.95 14.81L25.95 14.81Q25.94 14.87 25.94 14.94L25.94 14.94L25.94 14.94Q25.94 15.16 26.03 15.30L26.03 15.30L26.03 15.30Q26.11 15.44 26.28 15.55L26.28 15.55L26.28 15.55Q26.42 15.67 26.59 15.74L26.59 15.74L26.59 15.74Q26.75 15.82 26.91 15.89L26.91 15.89L26.91 15.89Q26.94 15.90 26.96 15.91L26.96 15.91L26.96 15.91Q26.98 15.92 27.01 15.93L27.01 15.93L27.01 15.93Q27.08 15.96 27.14 15.97L27.14 15.97L27.14 15.97Q27.20 15.99 27.24 15.99L27.24 15.99L27.24 15.99Q27.40 15.99 27.47 15.89L27.47 15.89L27.47 15.89Q27.54 15.79 27.57 15.58L27.57 15.58L27.57 15.58Q27.59 15.43 27.61 15.27L27.61 15.27L27.61 15.27Q27.62 15.11 27.65 14.94L27.65 14.94L27.65 14.94Q27.71 14.53 27.76 14.06L27.76 14.06L27.76 14.06Q27.82 13.59 27.90 13.10L27.90 13.10L27.90 13.10Q28.08 13.06 28.25 13.03L28.25 13.03L28.25 13.03Q28.42 12.99 28.60 12.95L28.60 12.95L28.60 12.95Q28.66 12.94 28.80 12.91L28.80 12.91L28.80 12.91Q28.73 13.45 28.69 13.90L28.69 13.90L28.69 13.90Q28.64 14.35 28.62 14.71L28.62 14.71L28.62 14.71Q28.60 14.78 28.60 14.92L28.60 14.92L28.60 14.92Q28.60 15.29 28.80 15.47L28.80 15.47L28.80 15.47Q28.99 15.65 29.29 15.79L29.29 15.79L29.29 15.79Q29.32 15.81 29.32 15.81L29.32 15.81L29.32 15.81Q29.33 15.81 29.36 15.82L29.36 15.82L29.36 15.82Q29.51 15.89 29.64 15.94L29.64 15.94L29.64 15.94Q29.76 15.99 29.88 15.99L29.88 15.99L29.88 15.99Q30.18 15.99 30.20 15.60L30.20 15.60L30.20 15.60Q30.32 14.69 30.47 13.68L30.47 13.68L30.47 13.68Q30.62 12.67 30.78 11.69L30.78 11.69L30.78 11.69Q30.94 10.71 31.10 9.81L31.10 9.81L31.10 9.81Q31.26 8.92 31.39 8.23Z"></path></g><!----><!----></svg>